<svg class="-icon _black-fill" height="15px" width="15px" viewBox="0 0 20 20" fill="none" xmlns="http://www.w3.org/2000/svg"><path d="M9.88721 1.5C5.19279 1.5 1.38721 5.30558 1.38721 10C1.38721 14.6944 5.19279 18.5 9.88721 18.5C14.5816 18.5 18.3872 14.6944 18.3872 10C18.3872 5.30558 14.5816 1.5 9.88721 1.5ZM9.88721 0.5C15.1339 0.5 19.3872 4.75329 19.3872 10C19.3872 15.2467 15.1339 19.5 9.88721 19.5C4.6405 19.5 0.387207 15.2467 0.387207 10C0.387207 4.75329 4.6405 0.5 9.88721 0.5Z" fill="white"></path><path fill-rule="evenodd" clip-rule="evenodd" d="M9.6572 14.34V13.45C8.6472 13.39 7.8772 12.97 7.3772 12.4L7.8772 11.76C8.2572 12.21 8.8672 12.61 9.6572 12.7V10.27C8.6372 9.99 7.5872 9.65 7.5872 8.42C7.5872 7.39 8.4572 6.66 9.6572 6.57V5.66H10.2672V6.58C11.0972 6.65 11.7572 6.99 12.2472 7.5L11.7472 8.11C11.3472 7.67 10.8272 7.42 10.2672 7.34V9.52C11.2972 9.81 12.3972 10.19 12.3972 11.5C12.3972 12.4 11.8172 13.34 10.2672 13.45V14.34H9.6572ZM11.5372 11.56C11.5372 10.91 10.9672 10.64 10.2672 10.43V12.71C11.2172 12.61 11.5372 12.04 11.5372 11.56ZM8.44721 8.37C8.44721 8.92 8.9772 9.16 9.6572 9.36V7.32C8.9472 7.37 8.44721 7.79 8.44721 8.37Z" fill="white"></path></svg>
