<svg xmlns="http://www.w3.org/2000/svg" viewBox="0 0 15 13" fill="none">
  <path d="M15 1.44159C14.4479 1.68623 13.8555 1.85213 13.2331 1.9262C13.8686 1.54564 14.3551 0.94201 14.5857 0.224951C13.9895 0.577377 13.3315 0.833284 12.6304 0.97201C12.0689 0.373064 11.2703 0 10.3846 0C8.6852 0 7.30733 1.37787 7.30733 3.0763C7.30733 3.31718 7.33451 3.55245 7.38701 3.77743C4.83 3.649 2.56262 2.42392 1.0451 0.562377C0.779828 1.01605 0.628922 1.54468 0.628922 2.10897C0.628922 3.17659 1.17257 4.1186 1.99743 4.66973C1.49314 4.65287 1.01885 4.51414 0.603627 4.28355V4.32199C0.603627 5.81233 1.66468 7.05615 3.07159 7.33924C2.81382 7.4086 2.54201 7.44703 2.26081 7.44703C2.06211 7.44703 1.86995 7.42735 1.68154 7.38985C2.07333 8.61306 3.20939 9.50257 4.55539 9.52696C3.50277 10.3518 2.17551 10.842 0.733922 10.842C0.485539 10.842 0.240882 10.827 0 10.7999C1.36194 11.6744 2.97882 12.1843 4.71662 12.1843C10.3771 12.1843 13.4712 7.49578 13.4712 3.42968L13.4609 3.03132C14.0655 2.60012 14.5885 2.05836 15 1.44159Z" fill="black"/>
</svg>
